<svg width="18" height="18" viewBox="0 0 18 18" fill="none" xmlns="http://www.w3.org/2000/svg">
    <g clip-path="url(#eigcgu5ewa)">
        <path d="M13.078 7.875a3.097 3.097 0 0 0-3.094 3.093 3.097 3.097 0 0 0 3.094 3.094 3.097 3.097 0 0 0 3.093-3.094 3.097 3.097 0 0 0-3.093-3.093zm1.311 2.597c-.899 1.35-.644.967-1.125 1.687a.563.563 0 0 1-.78.156l-.843-.562a.563.563 0 0 1 .624-.936l.375.25c.897-1.345.85-1.308 1-1.394.512-.296 1.079.304.75.799zm-3.842 3.87v3.095c0 .43.466.702.841.488l1.69-.965 1.69.965a.563.563 0 0 0 .84-.488V14.34a4.209 4.209 0 0 1-5.061 0zm3.656-7.44v-5.68C14.203.548 13.655 0 12.98 0H3.05c-.674 0-1.222.548-1.222 1.222v13.024c0 .674.548 1.222 1.222 1.222h6.372c0-2.42-.004-2.27.008-2.382-1.883-3.228 1.116-7.2 4.773-6.184zm-9-4.09h4.781a.562.562 0 1 1 0 1.125H5.203a.562.562 0 1 1 0-1.125zm2.812 5.625H5.203a.562.562 0 1 1 0-1.125h2.812a.562.562 0 1 1 0 1.125zm-2.812-2.25a.562.562 0 1 1 0-1.125h4.781a.562.562 0 1 1 0 1.125H5.203z" fill="#55ADFF"/>
    </g>
    <defs>
        <clipPath id="eigcgu5ewa">
            <path fill="#fff" d="M0 0h18v18H0z"/>
        </clipPath>
    </defs>
</svg>
