<svg width="20" height="20" viewBox="0 0 20 20" fill="none" xmlns="http://www.w3.org/2000/svg">
    <g clip-path="url(#8awn52xjka)" fill="#557AFF">
        <path d="M5.833 3.333c3.222 0 5.834-.746 5.834-1.666C11.667.747 9.055 0 5.833 0 2.612 0 0 .746 0 1.667c0 .92 2.612 1.666 5.833 1.666zM5.833 7.083c3.222 0 5.834-.745 5.834-1.666v-1.89C9.83 4.513 6.67 4.584 5.833 4.584c-.836 0-3.996-.071-5.833-1.055v1.889c0 .92 2.612 1.666 5.833 1.666zM7.917 15.725v2.492c-.642.075-1.35.116-2.084.116-3.225 0-5.833-.75-5.833-1.666v-1.892c1.833.983 5 1.058 5.833 1.058.359 0 1.15-.016 2.084-.108zM8.008 11.967c-.025.075-.041.166-.058.25l-.033-.025v2.275c-.642.075-1.35.116-2.084.116-3.225 0-5.833-.75-5.833-1.666v-1.892c1.833.983 5 1.058 5.833 1.058.367 0 1.2-.016 2.175-.116zM5.833 8.333c-.836 0-3.996-.071-5.833-1.055v1.889c0 .92 2.612 1.666 5.833 1.666 3.222 0 5.834-.745 5.834-1.666v-1.89C9.83 8.263 6.67 8.334 5.833 8.334zM14.584 14.167c2.991 0 5.416-.747 5.416-1.667s-2.425-1.667-5.416-1.667c-2.992 0-5.417.746-5.417 1.667 0 .92 2.425 1.667 5.417 1.667zM14.584 17.083c2.991 0 5.416-.745 5.416-1.666V14.36c-1.705.985-4.64 1.056-5.416 1.056-.777 0-3.712-.072-5.417-1.056v1.056c0 .92 2.425 1.666 5.417 1.666zM14.584 18.333c-.777 0-3.712-.071-5.417-1.055v1.055c0 .921 2.425 1.667 5.417 1.667C17.575 20 20 19.254 20 18.333v-1.055c-1.705.984-4.64 1.055-5.416 1.055z"/>
    </g>
    <defs>
        <clipPath id="8awn52xjka">
            <path fill="#fff" d="M0 0h20v20H0z"/>
        </clipPath>
    </defs>
</svg>
