<svg width="95" height="96" viewBox="0 0 95 96" fill="none" xmlns="http://www.w3.org/2000/svg">
    <path d="M94.1 54.008H0V116h94.1V54.008z" fill="#7F81FF"/>
    <path d="M30.784 54H0v61.992h30.784V54z" fill="#5254CF"/>
    <path d="M62.522 50.7c0 .084-.17 3.718-.17 3.718l5.737.028-2.413-2.253-.697-1.606-2.457.113z" fill="#1B1B43"/>
    <path d="m65.515 52.061-.957.958.318.319.958-.958-.319-.319z" fill="#fff"/>
    <path d="M64.952 25.057c2.399 6.557 1.991 16.488.864 26.103h-3.68c-.313-10.298-1.303-19.905-3.682-28.093l6.498 1.991v-.001zM53.169 50.024c0 .084-.845 4.394-.845 4.394L47 54.446l2.366-2.366 1.155-2.338 2.648.282z" fill="#1B1B43"/>
    <path d="m49.559 51.928-.328.31 1.015 1.07.327-.31-1.014-1.07z" fill="#fff"/>
    <path d="M49.516 50.634c2.479-8.938 4.343-18.796 5.783-26.966l6.535.15c-1.342 9.91-4.388 18.708-8.262 26.966l-4.056-.15z" fill="#1B1B43"/>
    <path d="m74.296 7.968-.043-1.422c-.356-.36-.66-1.003-.93-1.831l2.578-.607c.324.623.353 1.395.268 2.226l.408 2.366-2.281-.732z" fill="#FFBC96"/>
    <path d="M76.643 12.303c-.545 2.547-1.812 4.904-5.643 3.89l-1.284-.352-3.786-1.036-.343-.839-1.893-4.646c3.308.806 6.423 1.708 8.996 2.893l1.352-4.47 3.043.788c.234.077-.356 3.367-.442 3.772z" fill="#5254CF"/>
    <path d="m69.715 15.841-3.785-1.036-.343-.839.153-.626c1.65.212 2.957 1.072 3.975 2.501z" fill="#1B1B43"/>
    <path d="m83.846 3.312-7.717 1.437-1.604.298-.523.1-.491.09-3.024.563-3.768.703-.198-1.014 3.605-1.186L83.133.026l.713 3.286z" fill="#FE5B52"/>
    <path d="m74.296 7.813 2.035-.62.197 1.19-2.232-.57z" fill="#1B1B43"/>
    <path d="M74.578 5.235c.074.345.022.572-.263.572-.285 0-.21-.249-.29-.591-.094-.394-.333-.704-.048-.704.285 0 .507.29.6.723z" fill="#FFBC96"/>
    <path d="m67.395 26.39-3.043-.282-.658-16.788 2.123 4.676 1.578 12.394z" fill="#1B1B43"/>
    <path d="M51.564 22.69c.112.392.278.776.486 1.125.19.317.461.624.763.836.148.104.335.213.523.19.215-.024.33-.209.556-.235.318-.037.6-.394.6-.394l.178-.186a.567.567 0 0 0 .115-.597c-.322-.835-.895-1.578-1.983-1.94l-1.24 1.202h.002z" fill="#FFBC96"/>
    <path d="M63.694 9.32c1.083 5.355 1.32 10.57 1.259 15.737-2.306.358-4.67.264-7.099-.338L59.663 9.13l1.873.49 2.16-.3z" fill="#fff"/>
    <path d="M63.694 9.32c3.477 3.944 4.379 10.286 4.601 17.352L66.98 28.06c-.262-5.521-1.014-13.108-3.287-18.741h.002zM59.661 9.13c2.324 6.827 1.041 12.995-1.094 19.006l-5.333-1.202c1.333-4.108 2.381-8.157 2.367-11.98l4.06-5.825z" fill="#5254CF"/>
    <path d="m59.661 9.13-3.311.76a8.164 8.164 0 0 0-3.19 1.519l-4.501 3.687a2.786 2.786 0 0 0-.459 3.835l3.233 4.285 1.963-1.671-1.662-3.747 3.868-2.845 4.06-5.824z" fill="#5254CF"/>
    <path d="m55.601 14.953 1.24-1.107c.192 1.027-.376 2.966-1.39 3.737l.15-2.629zM57.202 26.463l-.197-.108c1.7-3.099 3.156-8.227 2.582-12.709l-1.302-1.685 1.16-2.205.2.104-1.093 2.077 1.252 1.62.004.03c.59 4.54-.882 9.738-2.605 12.876z" fill="#1B1B43"/>
    <path d="m60.398 8.165-.019.882-.719.082c1.406 1.11 2.763 1.3 4.033.19l-.733-.075-.075-1.662-2.592-.216.104.798h.001z" fill="#FFBC96"/>
    <path d="M61.084 7.94c.362.786 1.023 1.417 1.878 1.314l-.04-.997-1.837-.316-.001-.002z" fill="#1B1B43"/>
    <path d="M63.478 6.268c.226 1.09.347 2.32-.488 2.395-.751.067-2.488-.357-2.46-2.033.015-.853.615-1.486 1.366-1.545 1.094-.084 1.41.349 1.582 1.183z" fill="#FFBC96"/>
    <path d="M63.976 6.644c.138.193-.16.487-.442.563-.205.055-.385-.26-.385-.498 0-.239-.016-.6.197-.592.216.01.442.263.629.527z" fill="#FFBC96"/>
    <path d="M61.319 7.244c-.524.064-.822.381-.92.92-1.203-.946-1.59-1.917-.339-2.938 0 0 .273-2.009 2.479-1.287.667.254.949.564 1.784.32-.404 1.661-1.452 1.827-2.685 1.417-.287.312-.335.67-.217 1.061l-.103.507z" fill="#1B1B43"/>
    <path d="M61.592 7.235c-.163.164-.461.13-.664-.073-.204-.204-.236-.5-.073-.664.163-.163.46-.13.664.074.204.203.236.5.073.663z" fill="#FFBC96"/>
    <path d="M84.189 1.493c.206.904.078 1.704-.286 1.787-.364.084-.827-.582-1.033-1.486-.206-.904-.079-1.704.285-1.787.364-.083.827.583 1.034 1.486zM70.486 5.8l-3.768.703-.199-1.014 3.606-1.186.36 1.497z" fill="#1B1B43"/>
</svg>
