<svg width="23" height="23" viewBox="0 0 23 23" fill="none" xmlns="http://www.w3.org/2000/svg">
    <g clip-path="url(#g4mewqymia)" fill="#557AFF">
        <path d="M21.471 11.798a.674.674 0 0 1 0-.596l.858-1.755c.478-.977.1-2.141-.862-2.651l-1.725-.916a.674.674 0 0 1-.35-.482l-.338-1.923a1.997 1.997 0 0 0-2.255-1.64l-1.934.274a.674.674 0 0 1-.567-.184L12.895.567a1.997 1.997 0 0 0-2.788 0L8.703 1.925a.674.674 0 0 1-.567.185l-1.934-.274a1.996 1.996 0 0 0-2.255 1.639l-.338 1.923a.674.674 0 0 1-.35.482l-1.725.916a1.997 1.997 0 0 0-.862 2.651l.858 1.755a.674.674 0 0 1 0 .596l-.858 1.755c-.478.977-.1 2.142.862 2.651l1.725.916a.674.674 0 0 1 .35.482l.338 1.924a1.995 1.995 0 0 0 2.255 1.638l1.934-.273a.674.674 0 0 1 .567.184l1.404 1.358a1.998 1.998 0 0 0 2.787 0l1.404-1.358a.675.675 0 0 1 .567-.184l1.934.273a1.996 1.996 0 0 0 2.255-1.638l.338-1.924a.675.675 0 0 1 .35-.482l1.725-.916c.961-.51 1.34-1.674.862-2.651l-.858-1.755zM8.847 5.531a2.435 2.435 0 0 1 2.432 2.432 2.435 2.435 0 0 1-2.432 2.432 2.435 2.435 0 0 1-2.432-2.432A2.435 2.435 0 0 1 8.847 5.53zM7.592 16.346a.661.661 0 0 1-.938 0 .663.663 0 0 1 0-.938l8.755-8.754a.663.663 0 0 1 .938.938l-8.755 8.754zm6.561 1.124a2.435 2.435 0 0 1-2.431-2.432 2.435 2.435 0 0 1 2.431-2.433 2.435 2.435 0 0 1 2.432 2.432 2.435 2.435 0 0 1-2.432 2.433z"/>
        <path d="M14.153 13.932a1.107 1.107 0 0 0 0 2.211 1.107 1.107 0 0 0 0-2.21zM8.847 6.857a1.107 1.107 0 0 0 0 2.21c.61 0 1.105-.495 1.105-1.105s-.496-1.105-1.105-1.105z"/>
    </g>
    <defs>
        <clipPath id="g4mewqymia">
            <path fill="#fff" d="M0 0h23v23H0z"/>
        </clipPath>
    </defs>
</svg>
