<svg width="125" height="195" viewBox="0 0 125 195" fill="none" xmlns="http://www.w3.org/2000/svg">
    <g clip-path="url(#0b5g6tehna)">
        <path opacity=".1" d="M63.496 0C28.427 0 0 29 0 64.772c0 35.771 28.429 64.771 63.496 64.771 35.067 0 63.496-29 63.496-64.772C126.992 29 98.563 0 63.496 0zm0 113.767c-26.526 0-48.03-21.936-48.03-48.995 0-27.06 21.504-48.996 48.03-48.996s48.03 21.936 48.03 48.996c0 27.059-21.504 48.995-48.03 48.995z" fill="#FFB147"/>
        <path opacity=".25" d="M63.496 113.767c26.526 0 48.03-21.936 48.03-48.995 0-27.06-21.504-48.996-48.03-48.996s-48.03 21.936-48.03 48.996c0 27.059 21.504 48.995 48.03 48.995z" fill="#FFB147"/>
        <path d="M18 215h112V93.015H18V215z" fill="#7F81FF"/>
        <path d="M93.359 214.985h36.64V93h-36.64v121.985z" fill="#5254CF"/>
        <path d="M78.045 56.76c-4.505 0-8.17-4.266-8.17-9.508 0-5.242 3.665-9.507 8.17-9.507s8.17 4.265 8.17 9.507-3.665 9.507-8.17 9.507zm0-17.7c-3.794 0-6.88 3.675-6.88 8.192s3.086 8.192 6.88 8.192 6.88-3.675 6.88-8.192-3.086-8.192-6.88-8.192zM50.339 56.76c-4.505 0-8.17-4.266-8.17-9.508 0-5.242 3.665-9.507 8.17-9.507s8.17 4.265 8.17 9.507-3.665 9.507-8.17 9.507zm0-17.7c-3.794 0-6.88 3.675-6.88 8.192s3.086 8.192 6.88 8.192 6.88-3.675 6.88-8.192-3.086-8.192-6.88-8.192z" fill="#FFB147"/>
        <path d="m61.081 67.835 1.46 9.224h3.372l1.46-9.224h-6.292z" fill="#BF8535"/>
        <path d="m57.938 65.077 1.305 2.439a2.867 2.867 0 0 0 2.523 1.529h4.923c1.052 0 2.02-.587 2.524-1.53l1.305-2.438H57.937zM59.359 81.157l1.01-3.391c.389-1.31 1.14-2.125 1.953-2.125h3.811c.814 0 1.564.815 1.954 2.125l1.01 3.39h-9.74.002z" fill="#BF8535"/>
        <path d="M72.579 80.45H55.876v12.617h16.703V80.45z" fill="#1B1B43"/>
        <path d="m47.945 32.491 4.988 29.604c.381 2.265 2.792 3.953 5.644 3.953H69.88c2.85 0 5.262-1.69 5.644-3.953l4.988-29.604H47.945z" fill="#FFB147"/>
        <path opacity=".6" d="M71.16 45.784c1.29 0 2.336-1.533 2.336-3.424 0-1.892-1.045-3.425-2.336-3.425-1.29 0-2.336 1.533-2.336 3.425 0 1.891 1.046 3.424 2.336 3.424z" fill="#fff"/>
        <path d="M58.005 73.094c-1.363-3.47-5.099-5.804-8.748-5.468-.495-4.079-4.951-6.654-8.977-6.467-4.025.188-7.664 2.373-11.113 4.497-2.111-1.69-5.614-1.05-7.021 1.28-2.933-2.57-7.866-2.25-10.456.68-3.097-.376-6.276 1.988-6.876 5.11l53.191.366v.002zM160.191 64.944c-1.364-3.47-5.099-5.804-8.749-5.467-.494-4.08-4.951-6.654-8.976-6.467-4.026.187-7.664 2.372-11.113 4.497-2.112-1.69-5.614-1.05-7.021 1.28-2.933-2.57-7.866-2.25-10.457.68-3.096-.376-6.276 1.987-6.875 5.11l53.191.366v.001z" fill="#fff"/>
    </g>
    <defs>
        <clipPath id="0b5g6tehna">
            <path fill="#fff" d="M0 0h130v215H0z"/>
        </clipPath>
    </defs>
</svg>
