<svg width="19" height="19" viewBox="0 0 19 19" fill="none" xmlns="http://www.w3.org/2000/svg">
    <g clip-path="url(#rfzcnf8pwa)" fill="#ED9C3A">
        <path d="M9.5 4.453c.306 0 .556-.25.556-.557V1.93a.557.557 0 0 0-1.114 0v1.967c0 .308.25.557.557.557zM6.429 5.398a.557.557 0 1 0 .787-.787l-1.39-1.39a.557.557 0 1 0-.788.786l1.39 1.391zM12.176 5.561a.554.554 0 0 0 .394-.163l1.39-1.39a.557.557 0 0 0-.786-.788l-1.391 1.391a.557.557 0 0 0 .393.95zM14.362 11.764l-1.363-4.36a.557.557 0 0 0-.53-.39H6.53a.557.557 0 0 0-.53.39l-1.363 4.36h9.725zM17.716 12.877h-6.323c-1.443 4.618-1.337 4.25-1.337 4.34 0 .227.184.41.41.41h7.964a.557.557 0 0 0 .545-.723l-1.259-4.027zM8.924 17.096l-1.318-4.219H1.283L.028 16.892a.557.557 0 0 0 .528.735h7.977a.41.41 0 0 0 .391-.531z"/>
    </g>
    <defs>
        <clipPath id="rfzcnf8pwa">
            <path fill="#fff" d="M0 0h19v19H0z"/>
        </clipPath>
    </defs>
</svg>
