<svg
                  width="95"
                  height="96"
                  viewBox="0 0 95 96"
                  fill="none"
                  xmlns="http://www.w3.org/2000/svg"
                >
                  <path
                    d="M94.1007 54.0078H0V116H94.1007V54.0078Z"
                    fill="#7F81FF"
                  />
                  <path d="M30.784 54H0V115.992H30.784V54Z" fill="#5254CF" />
                  <path
                    d="M62.5217 50.7001C62.5217 50.7846 62.3516 54.4184 62.3516 54.4184L68.089 54.4465L65.6755 52.193L64.9791 50.5874L62.5217 50.7001V50.7001Z"
                    fill="#1B1B43"
                  />
                  <path
                    d="M65.5163 52.0614L64.5586 53.019L64.8773 53.3377L65.835 52.3801L65.5163 52.0614Z"
                    fill="white"
                  />
                  <path
                    d="M64.9531 25.0572C67.3519 31.6138 66.944 41.545 65.8173 51.1607H62.1362C61.8241 40.8622 60.8337 31.2555 58.4551 23.0674L64.9531 25.0584V25.0572Z"
                    fill="#1B1B43"
                  />
                  <path
                    d="M53.169 50.0239C53.169 50.1084 52.3239 54.4182 52.3239 54.4182L47 54.4464L49.3662 52.0802L50.5211 49.7422L53.169 50.0239Z"
                    fill="#1B1B43"
                  />
                  <path
                    d="M49.5577 51.9278L49.2305 52.2378L50.2448 53.3085L50.572 52.9986L49.5577 51.9278Z"
                    fill="white"
                  />
                  <path
                    d="M49.5156 50.6345C51.9945 41.696 53.8593 31.838 55.2992 23.668L61.8344 23.8178C60.4924 33.7287 57.4457 42.5264 53.5719 50.7844L49.5156 50.6345V50.6345Z"
                    fill="#1B1B43"
                  />
                  <path
                    d="M74.2947 7.96752L74.2518 6.54556C73.8958 6.18613 73.5916 5.54275 73.3223 4.71459L75.9003 4.1084C76.2237 4.73149 76.2529 5.50332 76.1684 6.33373L76.5763 8.69991L74.2947 7.96752Z"
                    fill="#FFBC96"
                  />
                  <path
                    d="M76.642 12.3033C76.0966 14.8497 74.8302 17.2069 70.9992 16.1928L69.7147 15.8413L65.9288 14.8047L65.5863 13.9664L63.6934 9.31964C67.0015 10.1264 70.1158 11.0278 72.6894 12.2131L74.0415 7.74219L77.0837 8.53091C77.318 8.60753 76.7276 11.8976 76.642 12.3033V12.3033Z"
                    fill="#5254CF"
                  />
                  <path
                    d="M69.7144 15.8412L65.9285 14.8046L65.5859 13.9663L65.7392 13.3398C67.3887 13.5517 68.6958 14.4125 69.7144 15.8412Z"
                    fill="#1B1B43"
                  />
                  <path
                    d="M83.8445 3.31198L76.1285 4.74971L74.524 5.04717L74.0012 5.14633L73.5099 5.23647L70.4857 5.79984L66.7178 6.50294L66.5195 5.48886L70.1251 4.30352L83.1324 0.0263672L83.8445 3.31198Z"
                    fill="#FE5B52"
                  />
                  <path
                    d="M74.2949 7.81356L76.3298 7.19385L76.527 8.3837L74.2949 7.81356Z"
                    fill="#1B1B43"
                  />
                  <path
                    d="M74.5759 5.23558C74.6502 5.58037 74.5984 5.80797 74.3133 5.80797C74.0283 5.80797 74.1038 5.55896 74.0226 5.21643C73.9291 4.82206 73.6902 4.51221 73.9753 4.51221C74.2604 4.51221 74.4824 4.80291 74.5759 5.23558Z"
                    fill="#FFBC96"
                  />
                  <path
                    d="M67.3936 26.3901L64.3514 26.1084L63.6934 9.31982L65.8162 13.9958L67.3936 26.3901Z"
                    fill="#1B1B43"
                  />
                  <path
                    d="M51.5617 22.691C51.6743 23.082 51.84 23.4662 52.0484 23.8155C52.2377 24.1321 52.5093 24.4397 52.8112 24.6516C52.9588 24.7552 53.1459 24.8645 53.3341 24.842C53.5493 24.8172 53.6642 24.6324 53.8895 24.6065C54.2084 24.5693 54.4901 24.2121 54.4901 24.2121L54.6681 24.0262C54.8202 23.8673 54.8619 23.6352 54.7831 23.429C54.4608 22.5941 53.8884 21.8516 52.8 21.4888L51.5605 22.691H51.5617Z"
                    fill="#FFBC96"
                  />
                  <path
                    d="M63.6935 9.31967C64.7763 14.6751 65.0129 19.8909 64.9521 25.057C62.6456 25.4153 60.2817 25.3207 57.8535 24.719L59.6608 9.13037L61.5335 9.62051L63.6935 9.31967V9.31967Z"
                    fill="white"
                  />
                  <path
                    d="M63.6925 9.31982C67.1686 13.2646 68.0711 19.6059 68.2931 26.6718L66.9781 28.0611C66.7156 22.54 65.9641 14.9536 63.6914 9.31982H63.6925Z"
                    fill="#5254CF"
                  />
                  <path
                    d="M59.6614 9.12939C61.9847 15.9575 60.7025 22.1254 58.5673 28.1366L53.2344 26.9343C54.5673 22.8262 55.6152 18.7778 55.6006 14.9536L59.6614 9.12939V9.12939Z"
                    fill="#5254CF"
                  />
                  <path
                    d="M59.6606 9.12939L56.349 9.89108C55.1874 10.1581 54.0989 10.6764 53.1592 11.4088L48.6578 15.0967C47.5007 16.0443 47.2978 17.7367 48.1992 18.931L51.4319 23.2161L53.3947 21.5451L51.7327 17.7986L55.6009 14.9536L59.6617 9.12939H59.6606Z"
                    fill="#5254CF"
                  />
                  <path
                    d="M55.5991 14.9538L56.8385 13.8462C57.0312 14.8738 56.4633 16.8129 55.4492 17.5836L55.5991 14.9549V14.9538Z"
                    fill="#1B1B43"
                  />
                  <path
                    d="M57.2011 26.4633L57.0039 26.3552C58.7042 23.2566 60.1599 18.1288 59.5864 13.6465L58.2839 11.9609L59.4444 9.75586L59.6439 9.86065L58.5509 11.9373L59.8028 13.5564L59.8073 13.5868C60.3977 18.1265 58.925 23.3253 57.2022 26.4633H57.2011Z"
                    fill="#1B1B43"
                  />
                  <path
                    d="M60.3982 8.16459L60.379 9.04684L59.6602 9.12909C61.0663 10.2389 62.423 10.4282 63.6928 9.31951L62.9604 9.24402L62.8849 7.58206L60.2934 7.36572L60.397 8.16346L60.3982 8.16459Z"
                    fill="#FFBC96"
                  />
                  <path
                    d="M61.084 7.93945C61.4457 8.72593 62.1071 9.35691 62.9623 9.25437L62.9228 8.2572L61.0851 7.94058L61.084 7.93945Z"
                    fill="#1B1B43"
                  />
                  <path
                    d="M63.4792 6.26822C63.7045 7.35779 63.8262 8.58707 62.9913 8.66256C62.2397 8.73017 60.5034 8.30538 60.5316 6.6299C60.5462 5.77695 61.1457 5.14372 61.8972 5.08513C62.9913 5.00062 63.3068 5.43329 63.4792 6.26822V6.26822Z"
                    fill="#FFBC96"
                  />
                  <path
                    d="M63.9757 6.64355C64.1143 6.83735 63.8157 7.13143 63.5341 7.20692C63.329 7.26213 63.1487 6.94777 63.1487 6.7089C63.1487 6.47003 63.1329 6.10834 63.3459 6.11735C63.5622 6.12637 63.7876 6.37989 63.9746 6.64355H63.9757Z"
                    fill="#FFBC96"
                  />
                  <path
                    d="M61.3187 7.24416C60.7948 7.30839 60.4973 7.62501 60.3981 8.16472C59.1959 7.21825 58.8083 6.24699 60.0601 5.22615C60.0601 5.22615 60.3328 3.21715 62.539 3.9394C63.206 4.19292 63.4877 4.50278 64.3226 4.25827C63.9192 5.92023 62.8714 6.08586 61.6376 5.67572C61.3514 5.98783 61.3029 6.34614 61.4212 6.73712L61.3176 7.24416H61.3187Z"
                    fill="#1B1B43"
                  />
                  <path
                    d="M61.5909 7.23492C61.4275 7.3983 61.13 7.36562 60.9272 7.16168C60.7233 6.95774 60.6906 6.6614 60.854 6.49802C61.0174 6.33464 61.3148 6.36732 61.5176 6.57126C61.7216 6.7752 61.7543 7.07154 61.5909 7.23492Z"
                    fill="#FFBC96"
                  />
                  <path
                    d="M84.1885 1.49324C84.3947 2.39689 84.2673 3.19688 83.9034 3.28026C83.5395 3.36364 83.0764 2.69773 82.8702 1.79408C82.664 0.890423 82.7913 0.0904291 83.1552 0.00704947C83.5192 -0.0763302 83.9823 0.58958 84.1885 1.49324Z"
                    fill="#1B1B43"
                  />
                  <path
                    d="M70.4857 5.79955L66.7178 6.50264L66.5195 5.48857L70.1251 4.30322L70.4857 5.79955Z"
                    fill="#1B1B43"
                  />
                </svg>