<svg width="18" height="18" viewBox="0 0 18 18" fill="none" xmlns="http://www.w3.org/2000/svg">
    <path d="M16.556 4.633c-.022-.473-.022-.925-.022-1.377a.634.634 0 0 0-.645-.646c-2.691 0-4.736-.775-6.436-2.432a.664.664 0 0 0-.904 0C6.849 1.835 4.803 2.61 2.113 2.61a.634.634 0 0 0-.646.646c0 .452 0 .904-.022 1.377-.086 4.52-.215 10.72 7.34 13.324l.216.043.215-.043c7.534-2.605 7.426-8.782 7.34-13.324zm-8.072 6.264a.695.695 0 0 1-.452.172h-.021a.606.606 0 0 1-.453-.215L5.557 8.637l.968-.861 1.572 1.743 3.487-3.315.882.948-3.982 3.745z" fill="#8B55FF"/>
</svg>
