<svg
                    width="125"
                    height="195"
                    viewBox="0 0 125 195"
                    fill="none"
                    xmlns="http://www.w3.org/2000/svg"
                  >
                    <g clip-path="url(#clip0_115_6281)">
                      <path
                        opacity="0.1"
                        d="M63.4959 0C28.4275 0 0 28.9997 0 64.7715C0 100.543 28.4287 129.543 63.4959 129.543C98.5632 129.543 126.992 100.543 126.992 64.7715C126.992 28.9997 98.5632 0 63.4959 0ZM63.4959 113.767C36.9697 113.767 15.4656 91.8306 15.4656 64.7715C15.4656 37.7124 36.9697 15.7763 63.4959 15.7763C90.0222 15.7763 111.526 37.7124 111.526 64.7715C111.526 91.8306 90.0222 113.767 63.4959 113.767V113.767Z"
                        fill="#FFB147"
                      />
                      <path
                        opacity="0.25"
                        d="M63.4952 113.767C90.0216 113.767 111.525 91.8308 111.525 64.7715C111.525 37.7122 90.0216 15.7764 63.4952 15.7764C36.9687 15.7764 15.4648 37.7122 15.4648 64.7715C15.4648 91.8308 36.9687 113.767 63.4952 113.767Z"
                        fill="#FFB147"
                      />
                      <path
                        d="M18 215H130L130 93.0146L18 93.0146L18 215Z"
                        fill="#7F81FF"
                      />
                      <path
                        d="M93.358 214.985H129.998L129.998 93H93.358L93.358 214.985Z"
                        fill="#5254CF"
                      />
                      <path
                        d="M78.043 56.7593C73.5382 56.7593 69.873 52.4938 69.873 47.252C69.873 42.0101 73.5382 37.7446 78.043 37.7446C82.5478 37.7446 86.2129 42.0101 86.2129 47.252C86.2129 52.4938 82.5478 56.7593 78.043 56.7593ZM78.043 39.06C74.2488 39.06 71.1625 42.7349 71.1625 47.252C71.1625 51.769 74.2488 55.4439 78.043 55.4439C81.8372 55.4439 84.9235 51.769 84.9235 47.252C84.9235 42.7349 81.8372 39.06 78.043 39.06Z"
                        fill="#FFB147"
                      />
                      <path
                        d="M50.3379 56.7593C45.8331 56.7593 42.168 52.4938 42.168 47.252C42.168 42.0101 45.8331 37.7446 50.3379 37.7446C54.8427 37.7446 58.5079 42.0101 58.5079 47.252C58.5079 52.4938 54.8427 56.7593 50.3379 56.7593ZM50.3379 39.06C46.5437 39.06 43.4574 42.7349 43.4574 47.252C43.4574 51.769 46.5437 55.4439 50.3379 55.4439C54.1322 55.4439 57.2184 51.769 57.2184 47.252C57.2184 42.7349 54.1322 39.06 50.3379 39.06Z"
                        fill="#FFB147"
                      />
                      <path
                        d="M61.0801 67.835L62.5408 77.0594H65.912L67.3727 67.835H61.0801Z"
                        fill="#BF8535"
                      />
                      <path
                        d="M57.9368 65.0767L59.2416 67.5157C59.7451 68.4583 60.7138 69.0449 61.7656 69.0449H66.6882C67.74 69.0449 68.7087 68.4583 69.2122 67.5157L70.517 65.0767H57.9355H57.9368Z"
                        fill="#BF8535"
                      />
                      <path
                        d="M59.3567 81.1567L60.3663 77.766C60.7561 76.4559 61.5063 75.6411 62.3203 75.6411H66.1312C66.9452 75.6411 67.6954 76.4559 68.0852 77.766L69.0947 81.1567H59.3555H59.3567Z"
                        fill="#BF8535"
                      />
                      <path
                        d="M72.5778 80.4502H55.875V93.0667H72.5778V80.4502Z"
                        fill="#1B1B43"
                      />
                      <path
                        d="M47.9434 32.4912L52.9312 62.0952C53.312 64.3596 55.7235 66.0478 58.5747 66.0478H69.8794C72.7293 66.0478 75.1408 64.3583 75.5229 62.0952L80.5107 32.4912H47.9459H47.9434Z"
                        fill="#FFB147"
                      />
                      <path
                        opacity="0.6"
                        d="M71.1603 45.7843C72.4505 45.7843 73.4964 44.251 73.4964 42.3597C73.4964 40.4683 72.4505 38.9351 71.1603 38.9351C69.8701 38.9351 68.8242 40.4683 68.8242 42.3597C68.8242 44.251 69.8701 45.7843 71.1603 45.7843Z"
                        fill="white"
                      />
                      <path
                        d="M58.0054 73.0936C56.6418 69.6233 52.9064 67.2898 49.2565 67.6262C48.762 63.5471 44.3057 60.9725 40.2802 61.1589C36.2546 61.3466 32.6163 63.5315 29.1671 65.6564C27.0559 63.9669 23.5531 64.6057 22.146 66.9366C19.2131 64.3658 14.2802 64.6865 11.6898 67.6158C8.59336 67.2403 5.41381 69.6038 4.81445 72.726L58.0054 73.0923V73.0936Z"
                        fill="white"
                      />
                      <path
                        d="M160.191 64.9442C158.827 61.4739 155.092 59.1404 151.442 59.4768C150.948 55.3977 146.491 52.8231 142.466 53.0095C138.44 53.1972 134.802 55.3821 131.353 57.507C129.241 55.8175 125.739 56.4563 124.332 58.7872C121.399 56.2164 116.466 56.5371 113.875 59.4663C110.779 59.0909 107.599 61.4544 107 64.5765L160.191 64.9429V64.9442Z"
                        fill="white"
                      />
                    </g>
                    <defs>
                      <clipPath id="clip0_115_6281">
                        <rect width="130" height="215" fill="white" />
                      </clipPath>
                    </defs>
                  </svg>